<svg version="1.1" xmlns="http://www.w3.org/2000/svg" xmlns:xlink="http://www.w3.org/1999/xlink" width="19" height="23" viewBox="0,0,211.47501,256"><g fill="#ffffff" fill-rule="none" stroke="none" stroke-width="1" stroke-linecap="butt" stroke-linejoin="miter" stroke-miterlimit="10" stroke-dasharray="" stroke-dashoffset="0" font-family="none" font-weight="none" font-size="none" text-anchor="none" style="mix-blend-mode: normal"><g transform="translate(0.2911,-3.09277) scale(11.13043,11.13043)"><g id="basket"><path d="M18.9474,6.85876h-18.9474v11.78944c0,2.2092 1.79086,4 4,4h10.9474c2.2091,0 4,-1.7908 4,-4zM4,21.1482c-1.38071,0 -2.5,-1.1192 -2.5,-2.5v-10.28944h15.9474v10.28944c0,1.3808 -1.1193,2.5 -2.5,2.5z" id="Rectangle-10" fill-rule="evenodd"></path><path d="M6.01315,12.06v-6.19194c0,-1.9112 1.54933,-3.46053 3.46053,-3.46053c1.91122,0 3.46052,1.54933 3.46052,3.46053v6.19194c0,0.4142 0.3358,0.75 0.75,0.75c0.4142,0 0.75,-0.3358 0.75,-0.75v-6.19194c0,-2.73962 -2.2209,-4.96053 -4.96052,-4.96053c-2.73962,0 -4.96053,2.22091 -4.96053,4.96053v6.19194c0,0.4142 0.33579,0.75 0.75,0.75c0.41422,0 0.75,-0.3358 0.75,-0.75z" id="Rectangle-3" fill-rule="nonzero"></path></g></g></g></svg>